<?xml version="1.0" encoding="utf-8"?>
<!-- Generator: Adobe Illustrator 16.0.0, SVG Export Plug-In . SVG Version: 6.00 Build 0)  -->
<!DOCTYPE svg PUBLIC "-//W3C//DTD SVG 1.1//EN" "http://www.w3.org/Graphics/SVG/1.1/DTD/svg11.dtd">
<svg version="1.1" id="Layer_1" xmlns="http://www.w3.org/2000/svg" xmlns:xlink="http://www.w3.org/1999/xlink" x="0px" y="0px"
	 width="512px" height="504.911px" viewBox="0 0 512 504.911" enable-background="new 0 0 512 504.911" xml:space="preserve">
<path fill="#9EAE3B" d="M88.913,61.904C60.897,75.545,19.823,161.576,9.492,188.98c-24.499,65.128-4.185,156.444,41.101,208.703
	c60.847,70.235,168.071,126.404,262.97,103.709c62.48-14.964,149.69-57.362,178.13-118.359
	c21.887-46.936,21.694-118.006,15.938-168.473c-6.021-53.085-31.287-164.649-84.693-194.086
	C372.22-7.509,284.348-2.149,232.229,9.185c-44.204,9.602-96.988,31.626-137.923,50.062c-11.054,4.988-19.147,10.734-21.269,23.632"
	/>
<path fill="#FFFFFF" d="M250.744,232.668c-35.92,0-71.838,19.337-77.358,44.206l2.757,82.894l30.392,5.523l16.577,66.308h82.892
	l11.054-71.831l27.633-5.526l5.517-77.367C350.203,243.718,299.574,232.668,250.744,232.668"/>
<path fill="#FFFFFF" d="M260.364,165.082c-0.159-8.367,7.989-13.229,12.933-13.118c3.779,0.083,11.153,5.61,14.033,8.129l8.97,8.047
	c3.417-4.999,3.423-10.962,3.423-17.254v-0.361c0.146-19.365-15.917-41.238-38.106-39.535c-26.019,1.99-39.552,14.099-37.743,39.177
	v0.358c-0.821,16.849,15.817,39.541,38.106,39.541c6.112,0,11.685-1.075,16.529-3.415l-13.118-11.144
	C261.789,173.018,260.437,169.577,260.364,165.082 M194.938,150.884v-0.361c-0.889-36.134,32.197-65.762,67.042-65.059
	c38.812,0.782,66.698,22.432,66.674,64.7v0.359c0,20.095-4.14,25.7-11.136,36.126l5.388,4.492c3.447,2.058,5.771,5.784,5.032,10.428
	c-1.124,7.099-5.755,13.118-12.941,13.118c-3.771,0-7.012-1.618-9.167-3.771l-6.828-6.116c-10.5,4.821-16.841,9.054-37.385,10.787
	C224.641,218.702,195.623,183.052,194.938,150.884"/>
</svg>
